<mxfile host="app.diagrams.net" modified="2020-09-22T09:59:34.110Z" agent="5.0 (Windows NT 10.0; Win64; x64) AppleWebKit/537.36 (KHTML, like Gecko) Chrome/85.0.4183.102 Safari/537.36" etag="SXhkqozPNg2-zB0SZMol" version="13.7.3" type="github">
  <diagram id="_OYfU61NS84gqoFQ5p60" name="Page-1">
    <mxGraphModel dx="1038" dy="580" grid="1" gridSize="10" guides="1" tooltips="1" connect="1" arrows="1" fold="1" page="1" pageScale="1" pageWidth="850" pageHeight="1100" math="0" shadow="0">
      <root>
        <mxCell id="0" />
        <mxCell id="1" parent="0" />
        <mxCell id="b9nC7I8uByjcG0mzQxcw-1" value="" style="rounded=1;whiteSpace=wrap;html=1;" vertex="1" parent="1">
          <mxGeometry x="280" y="70" width="100" height="30" as="geometry" />
        </mxCell>
        <mxCell id="b9nC7I8uByjcG0mzQxcw-3" style="edgeStyle=orthogonalEdgeStyle;rounded=0;orthogonalLoop=1;jettySize=auto;html=1;fontSize=16;" edge="1" parent="1" source="b9nC7I8uByjcG0mzQxcw-2">
          <mxGeometry relative="1" as="geometry">
            <mxPoint x="330" y="140" as="targetPoint" />
          </mxGeometry>
        </mxCell>
        <mxCell id="b9nC7I8uByjcG0mzQxcw-2" value="START" style="text;html=1;strokeColor=none;fillColor=none;align=center;verticalAlign=middle;whiteSpace=wrap;rounded=0;fontSize=16;" vertex="1" parent="1">
          <mxGeometry x="290" y="70" width="80" height="30" as="geometry" />
        </mxCell>
        <mxCell id="b9nC7I8uByjcG0mzQxcw-8" style="edgeStyle=orthogonalEdgeStyle;rounded=0;orthogonalLoop=1;jettySize=auto;html=1;exitX=0.5;exitY=1;exitDx=0;exitDy=0;fontSize=16;" edge="1" parent="1" source="b9nC7I8uByjcG0mzQxcw-4" target="b9nC7I8uByjcG0mzQxcw-9">
          <mxGeometry relative="1" as="geometry">
            <mxPoint x="330" y="240" as="targetPoint" />
            <Array as="points">
              <mxPoint x="335" y="195" />
            </Array>
          </mxGeometry>
        </mxCell>
        <mxCell id="b9nC7I8uByjcG0mzQxcw-4" value="" style="shape=parallelogram;perimeter=parallelogramPerimeter;whiteSpace=wrap;html=1;fixedSize=1;fontSize=16;" vertex="1" parent="1">
          <mxGeometry x="225" y="135.01" width="210" height="60" as="geometry" />
        </mxCell>
        <mxCell id="b9nC7I8uByjcG0mzQxcw-6" value="Input 3 numbers&lt;br&gt;a,b,c" style="text;html=1;strokeColor=none;fillColor=none;align=center;verticalAlign=middle;whiteSpace=wrap;rounded=0;fontSize=16;rotation=0;" vertex="1" parent="1">
          <mxGeometry x="240" y="145.81" width="180" height="44.19" as="geometry" />
        </mxCell>
        <mxCell id="b9nC7I8uByjcG0mzQxcw-14" style="edgeStyle=orthogonalEdgeStyle;rounded=0;orthogonalLoop=1;jettySize=auto;html=1;exitX=0;exitY=0.5;exitDx=0;exitDy=0;fontSize=16;" edge="1" parent="1" source="b9nC7I8uByjcG0mzQxcw-9">
          <mxGeometry relative="1" as="geometry">
            <mxPoint x="230" y="290" as="targetPoint" />
          </mxGeometry>
        </mxCell>
        <mxCell id="b9nC7I8uByjcG0mzQxcw-9" value="" style="rhombus;whiteSpace=wrap;html=1;" vertex="1" parent="1">
          <mxGeometry x="280" y="240" width="110" height="100" as="geometry" />
        </mxCell>
        <mxCell id="b9nC7I8uByjcG0mzQxcw-12" value="" style="edgeStyle=orthogonalEdgeStyle;rounded=0;orthogonalLoop=1;jettySize=auto;html=1;fontSize=16;exitX=1;exitY=0.5;exitDx=0;exitDy=0;" edge="1" parent="1" source="b9nC7I8uByjcG0mzQxcw-9" target="b9nC7I8uByjcG0mzQxcw-11">
          <mxGeometry relative="1" as="geometry">
            <mxPoint x="390" y="290" as="sourcePoint" />
          </mxGeometry>
        </mxCell>
        <mxCell id="b9nC7I8uByjcG0mzQxcw-10" value="Is a&amp;gt;b" style="text;html=1;strokeColor=none;fillColor=none;align=center;verticalAlign=middle;whiteSpace=wrap;rounded=0;fontSize=16;" vertex="1" parent="1">
          <mxGeometry x="300" y="270" width="60" height="40" as="geometry" />
        </mxCell>
        <mxCell id="b9nC7I8uByjcG0mzQxcw-28" style="edgeStyle=orthogonalEdgeStyle;rounded=0;orthogonalLoop=1;jettySize=auto;html=1;exitX=1;exitY=0.5;exitDx=0;exitDy=0;fontSize=16;" edge="1" parent="1" source="b9nC7I8uByjcG0mzQxcw-11">
          <mxGeometry relative="1" as="geometry">
            <mxPoint x="570" y="290" as="targetPoint" />
          </mxGeometry>
        </mxCell>
        <mxCell id="b9nC7I8uByjcG0mzQxcw-29" style="edgeStyle=orthogonalEdgeStyle;rounded=0;orthogonalLoop=1;jettySize=auto;html=1;exitX=0.5;exitY=1;exitDx=0;exitDy=0;fontSize=16;" edge="1" parent="1" source="b9nC7I8uByjcG0mzQxcw-11">
          <mxGeometry relative="1" as="geometry">
            <mxPoint x="470" y="380" as="targetPoint" />
          </mxGeometry>
        </mxCell>
        <mxCell id="b9nC7I8uByjcG0mzQxcw-11" value="" style="rhombus;whiteSpace=wrap;html=1;fontSize=16;" vertex="1" parent="1">
          <mxGeometry x="430" y="250" width="80" height="80" as="geometry" />
        </mxCell>
        <mxCell id="b9nC7I8uByjcG0mzQxcw-13" value="Is b&amp;gt;c" style="text;html=1;strokeColor=none;fillColor=none;align=center;verticalAlign=middle;whiteSpace=wrap;rounded=0;fontSize=16;" vertex="1" parent="1">
          <mxGeometry x="450" y="280" width="50" height="20" as="geometry" />
        </mxCell>
        <mxCell id="b9nC7I8uByjcG0mzQxcw-21" value="No" style="text;html=1;strokeColor=none;fillColor=none;align=center;verticalAlign=middle;whiteSpace=wrap;rounded=0;fontSize=16;" vertex="1" parent="1">
          <mxGeometry x="390" y="270" width="40" height="20" as="geometry" />
        </mxCell>
        <mxCell id="b9nC7I8uByjcG0mzQxcw-22" value="Yes" style="text;html=1;strokeColor=none;fillColor=none;align=center;verticalAlign=middle;whiteSpace=wrap;rounded=0;fontSize=16;" vertex="1" parent="1">
          <mxGeometry x="240" y="270" width="40" height="20" as="geometry" />
        </mxCell>
        <mxCell id="b9nC7I8uByjcG0mzQxcw-26" style="edgeStyle=orthogonalEdgeStyle;rounded=0;orthogonalLoop=1;jettySize=auto;html=1;exitX=0;exitY=0.5;exitDx=0;exitDy=0;fontSize=16;" edge="1" parent="1" source="b9nC7I8uByjcG0mzQxcw-23">
          <mxGeometry relative="1" as="geometry">
            <mxPoint x="110" y="290" as="targetPoint" />
          </mxGeometry>
        </mxCell>
        <mxCell id="b9nC7I8uByjcG0mzQxcw-27" style="edgeStyle=orthogonalEdgeStyle;rounded=0;orthogonalLoop=1;jettySize=auto;html=1;exitX=0.5;exitY=1;exitDx=0;exitDy=0;fontSize=16;" edge="1" parent="1" source="b9nC7I8uByjcG0mzQxcw-23">
          <mxGeometry relative="1" as="geometry">
            <mxPoint x="190" y="380" as="targetPoint" />
          </mxGeometry>
        </mxCell>
        <mxCell id="b9nC7I8uByjcG0mzQxcw-23" value="" style="rhombus;whiteSpace=wrap;html=1;fontSize=16;" vertex="1" parent="1">
          <mxGeometry x="150" y="250" width="80" height="80" as="geometry" />
        </mxCell>
        <mxCell id="b9nC7I8uByjcG0mzQxcw-25" value="Is a&amp;gt;c" style="text;html=1;strokeColor=none;fillColor=none;align=center;verticalAlign=middle;whiteSpace=wrap;rounded=0;fontSize=16;" vertex="1" parent="1">
          <mxGeometry x="160" y="280" width="60" height="20" as="geometry" />
        </mxCell>
        <mxCell id="b9nC7I8uByjcG0mzQxcw-30" value="Yes" style="text;html=1;strokeColor=none;fillColor=none;align=center;verticalAlign=middle;whiteSpace=wrap;rounded=0;fontSize=16;" vertex="1" parent="1">
          <mxGeometry x="110" y="270" width="40" height="20" as="geometry" />
        </mxCell>
        <mxCell id="b9nC7I8uByjcG0mzQxcw-31" value="No" style="text;html=1;strokeColor=none;fillColor=none;align=center;verticalAlign=middle;whiteSpace=wrap;rounded=0;fontSize=16;rotation=90;" vertex="1" parent="1">
          <mxGeometry x="190" y="340" width="40" height="20" as="geometry" />
        </mxCell>
        <mxCell id="b9nC7I8uByjcG0mzQxcw-32" value="Yes" style="text;html=1;strokeColor=none;fillColor=none;align=center;verticalAlign=middle;whiteSpace=wrap;rounded=0;fontSize=16;" vertex="1" parent="1">
          <mxGeometry x="510" y="270" width="40" height="20" as="geometry" />
        </mxCell>
        <mxCell id="b9nC7I8uByjcG0mzQxcw-33" value="No" style="text;html=1;strokeColor=none;fillColor=none;align=center;verticalAlign=middle;whiteSpace=wrap;rounded=0;fontSize=16;rotation=90;" vertex="1" parent="1">
          <mxGeometry x="470" y="340" width="40" height="20" as="geometry" />
        </mxCell>
        <mxCell id="b9nC7I8uByjcG0mzQxcw-34" value="" style="shape=parallelogram;perimeter=parallelogramPerimeter;whiteSpace=wrap;html=1;fixedSize=1;fontSize=16;" vertex="1" parent="1">
          <mxGeometry x="130" y="380" width="120" height="40" as="geometry" />
        </mxCell>
        <mxCell id="b9nC7I8uByjcG0mzQxcw-53" style="edgeStyle=orthogonalEdgeStyle;rounded=0;orthogonalLoop=1;jettySize=auto;html=1;exitX=0.5;exitY=1;exitDx=0;exitDy=0;entryX=0.75;entryY=0;entryDx=0;entryDy=0;fontSize=16;" edge="1" parent="1" source="b9nC7I8uByjcG0mzQxcw-35" target="b9nC7I8uByjcG0mzQxcw-45">
          <mxGeometry relative="1" as="geometry" />
        </mxCell>
        <mxCell id="b9nC7I8uByjcG0mzQxcw-35" value="" style="shape=parallelogram;perimeter=parallelogramPerimeter;whiteSpace=wrap;html=1;fixedSize=1;fontSize=16;" vertex="1" parent="1">
          <mxGeometry x="410" y="380" width="110" height="40" as="geometry" />
        </mxCell>
        <mxCell id="b9nC7I8uByjcG0mzQxcw-54" style="edgeStyle=orthogonalEdgeStyle;rounded=0;orthogonalLoop=1;jettySize=auto;html=1;exitX=0.5;exitY=1;exitDx=0;exitDy=0;entryX=1;entryY=0.5;entryDx=0;entryDy=0;fontSize=16;" edge="1" parent="1" source="b9nC7I8uByjcG0mzQxcw-36" target="b9nC7I8uByjcG0mzQxcw-45">
          <mxGeometry relative="1" as="geometry" />
        </mxCell>
        <mxCell id="b9nC7I8uByjcG0mzQxcw-36" value="" style="shape=parallelogram;perimeter=parallelogramPerimeter;whiteSpace=wrap;html=1;fixedSize=1;fontSize=16;" vertex="1" parent="1">
          <mxGeometry x="560" y="270" width="120" height="40" as="geometry" />
        </mxCell>
        <mxCell id="b9nC7I8uByjcG0mzQxcw-52" style="edgeStyle=orthogonalEdgeStyle;rounded=0;orthogonalLoop=1;jettySize=auto;html=1;exitX=0.5;exitY=1;exitDx=0;exitDy=0;entryX=0;entryY=0.5;entryDx=0;entryDy=0;fontSize=16;" edge="1" parent="1" source="b9nC7I8uByjcG0mzQxcw-37" target="b9nC7I8uByjcG0mzQxcw-45">
          <mxGeometry relative="1" as="geometry" />
        </mxCell>
        <mxCell id="b9nC7I8uByjcG0mzQxcw-37" value="" style="shape=parallelogram;perimeter=parallelogramPerimeter;whiteSpace=wrap;html=1;fixedSize=1;fontSize=16;" vertex="1" parent="1">
          <mxGeometry x="20" y="270" width="100" height="40" as="geometry" />
        </mxCell>
        <mxCell id="b9nC7I8uByjcG0mzQxcw-39" value="Output a" style="text;html=1;strokeColor=none;fillColor=none;align=center;verticalAlign=middle;whiteSpace=wrap;rounded=0;fontSize=16;" vertex="1" parent="1">
          <mxGeometry x="40" y="270" width="70" height="30" as="geometry" />
        </mxCell>
        <mxCell id="b9nC7I8uByjcG0mzQxcw-50" style="edgeStyle=orthogonalEdgeStyle;rounded=0;orthogonalLoop=1;jettySize=auto;html=1;exitX=0.5;exitY=1;exitDx=0;exitDy=0;entryX=0.5;entryY=1;entryDx=0;entryDy=0;fontSize=16;" edge="1" parent="1" source="b9nC7I8uByjcG0mzQxcw-40" target="b9nC7I8uByjcG0mzQxcw-34">
          <mxGeometry relative="1" as="geometry" />
        </mxCell>
        <mxCell id="b9nC7I8uByjcG0mzQxcw-51" style="edgeStyle=orthogonalEdgeStyle;rounded=0;orthogonalLoop=1;jettySize=auto;html=1;exitX=0.5;exitY=1;exitDx=0;exitDy=0;entryX=0.108;entryY=-0.073;entryDx=0;entryDy=0;entryPerimeter=0;fontSize=16;" edge="1" parent="1" source="b9nC7I8uByjcG0mzQxcw-40" target="b9nC7I8uByjcG0mzQxcw-45">
          <mxGeometry relative="1" as="geometry" />
        </mxCell>
        <mxCell id="b9nC7I8uByjcG0mzQxcw-40" value="Output c" style="text;html=1;strokeColor=none;fillColor=none;align=center;verticalAlign=middle;whiteSpace=wrap;rounded=0;fontSize=16;" vertex="1" parent="1">
          <mxGeometry x="155" y="385" width="70" height="35" as="geometry" />
        </mxCell>
        <mxCell id="b9nC7I8uByjcG0mzQxcw-41" value="Output c" style="text;html=1;strokeColor=none;fillColor=none;align=center;verticalAlign=middle;whiteSpace=wrap;rounded=0;fontSize=16;" vertex="1" parent="1">
          <mxGeometry x="430" y="385" width="70" height="30" as="geometry" />
        </mxCell>
        <mxCell id="b9nC7I8uByjcG0mzQxcw-42" value="Output b" style="text;html=1;strokeColor=none;fillColor=none;align=center;verticalAlign=middle;whiteSpace=wrap;rounded=0;fontSize=16;" vertex="1" parent="1">
          <mxGeometry x="590" y="275" width="70" height="30" as="geometry" />
        </mxCell>
        <mxCell id="b9nC7I8uByjcG0mzQxcw-45" value="" style="rounded=1;whiteSpace=wrap;html=1;" vertex="1" parent="1">
          <mxGeometry x="300" y="510" width="100" height="30" as="geometry" />
        </mxCell>
        <mxCell id="b9nC7I8uByjcG0mzQxcw-47" value="STOP" style="text;html=1;strokeColor=none;fillColor=none;align=center;verticalAlign=middle;whiteSpace=wrap;rounded=0;fontSize=16;" vertex="1" parent="1">
          <mxGeometry x="310" y="515" width="80" height="20" as="geometry" />
        </mxCell>
      </root>
    </mxGraphModel>
  </diagram>
</mxfile>
